<svg height="24" viewBox="-25 0 512 512" width="24" xmlns="http://www.w3.org/2000/svg"><path d="m462 180h-35v-51.214844l-128.785156-128.785156h-263.214844v180h-35v256h35v76h392v-76h35zm-155-128.785156 68.785156 68.785156h-68.785156zm-242-21.214844h212v120h120v30h-332zm332 452h-332v-46h332zm35-76h-402v-196h402zm0 0"/><path d="m103 333h14.5c25.089844 0 45.5-20.410156 45.5-45.5s-20.410156-45.5-45.5-45.5h-44.5v136h30zm0-61h14.5c8.546875 0 15.5 6.953125 15.5 15.5s-6.953125 15.5-15.5 15.5h-14.5zm0 0"/><path d="m283 318v-16c0-33.085938-26.914062-60-60-60h-30v136h30c33.085938 0 60-26.914062 60-60zm-60-46c16.542969 0 30 13.457031 30 30v16c0 16.542969-13.457031 30-30 30zm0 0"/><path d="m345 336.5h30v-30h-30v-34.5h45v-30h-75v136h30zm0 0"/></svg>
